<svg width="14" height="17" viewBox="0 0 14 17" fill="none" xmlns="http://www.w3.org/2000/svg">
<path d="M12.3335 6.97499C12.0874 6.97499 11.8566 7.04202 11.6584 7.15881C11.5838 6.49375 11.0181 5.97541 10.3335 5.97541C10.008 5.97541 9.70881 6.0932 9.4764 6.2894C9.243 5.90188 8.81818 5.64221 8.3335 5.64221C8.091 5.64221 7.86312 5.70727 7.66684 5.82116V2.31032C7.66681 1.57525 7.06884 0.977539 6.3335 0.977539C5.59815 0.977539 5.00015 1.57525 5.00015 2.31032V11.2277C5.00015 11.3956 4.88946 11.4818 4.84193 11.5111C4.7944 11.5404 4.66646 11.6006 4.51771 11.5258L2.37709 10.4559C2.18209 10.3583 1.96368 10.3069 1.74559 10.3069C0.966933 10.3069 0.333496 10.9401 0.333496 11.7184V11.9729C0.333496 12.0653 0.371902 12.1534 0.439277 12.2166L4.28662 15.8058C5.09193 16.5568 6.14209 16.9707 7.24331 16.9707H9.33346C11.7228 16.9707 13.6668 15.0276 13.6668 12.6392V8.30776C13.6668 7.5727 13.0688 6.97499 12.3335 6.97499ZM13.0002 12.6392C13.0002 14.6602 11.3553 16.3043 9.3335 16.3043H7.24334C6.31168 16.3043 5.42303 15.9542 4.74171 15.3184L1.00015 11.8281V11.7184C1.00015 11.3075 1.33446 10.9733 1.74559 10.9733C1.8605 10.9733 1.97606 11.0006 2.07893 11.052L4.21956 12.1219C4.53175 12.2784 4.89565 12.2611 5.19253 12.0783C5.4894 11.8948 5.66681 11.5769 5.66681 11.2277V2.31032C5.66681 1.94297 5.96596 1.64394 6.33346 1.64394C6.70096 1.64394 7.00012 1.94297 7.00012 2.31032V7.30819C7.00012 7.49236 7.14921 7.64139 7.33346 7.64139C7.51771 7.64139 7.66681 7.49236 7.66681 7.30819V6.97499C7.66681 6.60764 7.96596 6.30861 8.33346 6.30861C8.70096 6.30861 9.00012 6.60764 9.00012 6.97499V7.30819C9.00012 7.30884 9.00012 7.3095 9.00012 7.31015V7.31047C9.00143 7.49333 9.15018 7.64139 9.33346 7.64139C9.51771 7.64139 9.66681 7.49236 9.66681 7.30819V7.30297C9.6694 6.93822 9.96825 6.64178 10.3335 6.64178C10.701 6.64178 11.0001 6.94081 11.0001 7.30816V8.30773C11.0001 8.4919 11.1492 8.64093 11.3335 8.64093C11.5177 8.64093 11.6668 8.4919 11.6668 8.30773C11.6668 7.94039 11.966 7.64136 12.3335 7.64136C12.701 7.64136 13.0002 7.94039 13.0002 8.30776V12.6392Z" fill="black"/>
</svg>
